<svg xmlns="http://www.w3.org/2000/svg" width="183.24" height="17.982" viewBox="0 0 183.24 17.982"><defs><style>.a{fill:#fff;}</style></defs><path class="a" d="M7.578-2.736H3.186L2.3.018a1.623,1.623,0,0,1-.342.108A2.236,2.236,0,0,1,1.53.162a1.275,1.275,0,0,1-.738-.2A.673.673,0,0,1,.5-.63a1.4,1.4,0,0,1,.054-.387Q.612-1.206.7-1.44q.234-.756.657-1.953t.9-2.529q.477-1.332.963-2.619t.846-2.2a2.247,2.247,0,0,1,.558-.207,3.042,3.042,0,0,1,.774-.1,2.839,2.839,0,0,1,.936.144.87.87,0,0,1,.558.5q.4,1.026.864,2.331t.936,2.691q.468,1.386.9,2.718t.774,2.412a1.243,1.243,0,0,1-.423.3,1.509,1.509,0,0,1-.621.117,1.057,1.057,0,0,1-.7-.189,1.41,1.41,0,0,1-.36-.639Zm-2.2-6.642q-.18.486-.4,1.1t-.45,1.287q-.234.675-.468,1.368t-.45,1.341H7.164Q6.93-5,6.687-5.733T6.219-7.128L5.8-8.379q-.2-.585-.324-1ZM14,.018a1.022,1.022,0,0,1-.756-.288,1.022,1.022,0,0,1-.288-.756v-9.9q.144-.036.387-.081a2.815,2.815,0,0,1,.513-.045,1.287,1.287,0,0,1,.783.2.83.83,0,0,1,.261.7V-1.6h4.878a1.356,1.356,0,0,1,.162.324,1.311,1.311,0,0,1,.072.45.9.9,0,0,1-.2.63A.674.674,0,0,1,19.3.018Zm10.62-.054a1.837,1.837,0,0,1-.369.1,2.815,2.815,0,0,1-.513.045,1.233,1.233,0,0,1-.8-.207A.867.867,0,0,1,22.7-.792V-10.926q.144-.036.387-.081a2.815,2.815,0,0,1,.513-.045,1.245,1.245,0,0,1,.774.2.846.846,0,0,1,.252.7ZM34.848-2.808a1.223,1.223,0,0,1-.4.216,1.707,1.707,0,0,1-.576.09,1.691,1.691,0,0,1-.657-.117.689.689,0,0,1-.387-.369Q32-4.9,31.4-6.372t-.963-2.466h-.09q-.054,1.278-.1,2.349t-.1,2.1Q30.1-3.366,30.033-2.3T29.9-.018a2.438,2.438,0,0,1-.369.1,2.429,2.429,0,0,1-.477.045q-.972,0-.972-.792,0-.234.027-.828t.072-1.413q.045-.819.108-1.809t.135-2.007q.072-1.017.144-2t.144-1.809a1.818,1.818,0,0,1,.477-.306A1.862,1.862,0,0,1,30.006-11a1.763,1.763,0,0,1,.918.207,1.414,1.414,0,0,1,.54.621q.288.63.594,1.359t.612,1.476q.306.747.594,1.485t.558,1.386h.09q.342-.9.693-1.782t.684-1.692l.63-1.53q.3-.72.549-1.3a2.87,2.87,0,0,1,.486-.162A2.44,2.44,0,0,1,37.548-11a1.752,1.752,0,0,1,.891.18.836.836,0,0,1,.387.522q.072.324.162,1.071t.18,1.719q.09.972.18,2.061t.162,2.106q.072,1.017.126,1.872t.072,1.341a1.575,1.575,0,0,1-.423.189,1.983,1.983,0,0,1-.531.063A1.285,1.285,0,0,1,38.1-.036a.718.718,0,0,1-.315-.612q-.072-1.224-.135-2.412T37.53-5.31q-.054-1.062-.1-1.962T37.35-8.8h-.072q-.342.918-.927,2.34ZM44.082.018a1.022,1.022,0,0,1-.756-.288,1.022,1.022,0,0,1-.288-.756V-9.9a.992.992,0,0,1,.288-.747,1.041,1.041,0,0,1,.756-.279H50.04a.908.908,0,0,1,.153.306,1.418,1.418,0,0,1,.063.432.9.9,0,0,1-.189.612.647.647,0,0,1-.513.216H44.946v2.988H49.5a.908.908,0,0,1,.153.306,1.418,1.418,0,0,1,.063.432.859.859,0,0,1-.189.612.676.676,0,0,1-.513.2H44.946v3.276H50.13a1.476,1.476,0,0,1,.144.306,1.255,1.255,0,0,1,.072.432.894.894,0,0,1-.189.621.66.66,0,0,1-.513.207Zm18.27-.27a1.664,1.664,0,0,1-.5.27,2.165,2.165,0,0,1-.72.108,1.892,1.892,0,0,1-.873-.189,1.765,1.765,0,0,1-.675-.711L56.61-5.94q-.2-.342-.4-.72t-.4-.756q-.189-.378-.36-.729t-.3-.621l-.09.018q.09.936.126,2.007t.036,2.025v4.7q-.126.036-.369.081a2.713,2.713,0,0,1-.5.045,1.239,1.239,0,0,1-.783-.2.813.813,0,0,1-.243-.666V-10.62a1.228,1.228,0,0,1,.513-.315,2.13,2.13,0,0,1,.711-.117,2.031,2.031,0,0,1,.882.18,1.676,1.676,0,0,1,.684.7l2.988,5.184q.2.342.4.72t.387.756q.189.378.36.729t.3.621l.072-.018q-.144-1.368-.162-2.709t-.018-2.619v-3.42q.144-.036.378-.081a2.669,2.669,0,0,1,.5-.045,1.239,1.239,0,0,1,.783.2.813.813,0,0,1,.243.666ZM70.2-9.342V-.036a1.837,1.837,0,0,1-.369.1,2.815,2.815,0,0,1-.513.045A1.194,1.194,0,0,1,68.526-.1a.886.886,0,0,1-.234-.693v-8.55H65.106a1.164,1.164,0,0,1-.153-.324,1.483,1.483,0,0,1-.063-.45.865.865,0,0,1,.189-.6.66.66,0,0,1,.513-.207h7.83a1.244,1.244,0,0,1,.135.306,1.418,1.418,0,0,1,.063.432q0,.846-.7.846ZM81.558-2.736H77.166L76.284.018a1.623,1.623,0,0,1-.342.108,2.236,2.236,0,0,1-.432.036,1.275,1.275,0,0,1-.738-.2.673.673,0,0,1-.288-.594,1.4,1.4,0,0,1,.054-.387q.054-.189.144-.423.234-.756.657-1.953t.9-2.529q.477-1.332.963-2.619t.846-2.2a2.247,2.247,0,0,1,.558-.207,3.042,3.042,0,0,1,.774-.1,2.839,2.839,0,0,1,.936.144.87.87,0,0,1,.558.5q.4,1.026.864,2.331t.936,2.691q.468,1.386.9,2.718t.774,2.412a1.243,1.243,0,0,1-.423.3A1.509,1.509,0,0,1,83.3.162a1.057,1.057,0,0,1-.7-.189,1.41,1.41,0,0,1-.36-.639Zm-2.2-6.642q-.18.486-.4,1.1t-.45,1.287q-.234.675-.468,1.368T77.6-4.284h3.546Q80.91-5,80.667-5.733T80.2-7.128l-.423-1.251q-.2-.585-.324-1ZM94.95-9.63a.891.891,0,0,1-.171.54,1.042,1.042,0,0,1-.4.342A7.729,7.729,0,0,0,93.3-9.324a3.732,3.732,0,0,0-1.521-.27,3.777,3.777,0,0,0-1.449.27,3.128,3.128,0,0,0-1.134.792,3.7,3.7,0,0,0-.747,1.3,5.4,5.4,0,0,0-.27,1.782A4.265,4.265,0,0,0,89.19-2.376a3.534,3.534,0,0,0,2.664,1.044,4.214,4.214,0,0,0,1.53-.252A5.386,5.386,0,0,0,94.5-2.16a1.39,1.39,0,0,1,.369.36.891.891,0,0,1,.171.54.867.867,0,0,1-.135.468,1.254,1.254,0,0,1-.441.4,3.481,3.481,0,0,1-.8.36A5.764,5.764,0,0,1,92.484.2a2.429,2.429,0,0,1,.378,1.332,1.875,1.875,0,0,1-.549,1.413,2.021,2.021,0,0,1-1.467.531,1.369,1.369,0,0,1-.828-.225.746.746,0,0,1-.306-.639,1.661,1.661,0,0,1,.018-.234.76.76,0,0,1,.072-.234h.252a1.276,1.276,0,0,0,.909-.27.979.979,0,0,0,.279-.738A1.567,1.567,0,0,0,91.17.693a1.986,1.986,0,0,0-.216-.477,5.7,5.7,0,0,1-1.89-.486,4.55,4.55,0,0,1-1.5-1.107,5.091,5.091,0,0,1-1-1.728,7.027,7.027,0,0,1-.36-2.349,6.651,6.651,0,0,1,.432-2.484,5.208,5.208,0,0,1,1.161-1.8,4.834,4.834,0,0,1,1.7-1.089,5.783,5.783,0,0,1,2.07-.369,6.589,6.589,0,0,1,1.395.135,4.686,4.686,0,0,1,1.062.351,2.07,2.07,0,0,1,.684.5A.9.9,0,0,1,94.95-9.63Zm9.432,6.894H99.99L99.108.018a1.623,1.623,0,0,1-.342.108,2.236,2.236,0,0,1-.432.036,1.275,1.275,0,0,1-.738-.2.673.673,0,0,1-.288-.594,1.4,1.4,0,0,1,.054-.387q.054-.189.144-.423.234-.756.657-1.953t.9-2.529q.477-1.332.963-2.619t.846-2.2a2.247,2.247,0,0,1,.558-.207,3.042,3.042,0,0,1,.774-.1,2.839,2.839,0,0,1,.936.144.87.87,0,0,1,.558.5q.4,1.026.864,2.331t.936,2.691q.468,1.386.9,2.718t.774,2.412a1.243,1.243,0,0,1-.423.3,1.509,1.509,0,0,1-.621.117,1.057,1.057,0,0,1-.7-.189,1.41,1.41,0,0,1-.36-.639Zm-2.2-6.642q-.18.486-.4,1.1t-.45,1.287q-.234.675-.468,1.368t-.45,1.341h3.546q-.234-.72-.477-1.449t-.468-1.395L102.6-8.379q-.2-.585-.324-1Zm-1.224-5.058a2.615,2.615,0,0,1,.7.09,6.277,6.277,0,0,1,.621.207q.3.117.558.207a1.519,1.519,0,0,0,.495.09.627.627,0,0,0,.513-.207,1.256,1.256,0,0,0,.243-.459h.108a1.108,1.108,0,0,1,.684.216.778.778,0,0,1,.288.666,1.119,1.119,0,0,1-.4.918,1.568,1.568,0,0,1-1.026.324,3,3,0,0,1-.747-.09,5.488,5.488,0,0,1-.648-.207q-.3-.117-.558-.207a1.475,1.475,0,0,0-.477-.09.6.6,0,0,0-.5.207,1.313,1.313,0,0,0-.234.477h-.108a1.116,1.116,0,0,1-.693-.225.793.793,0,0,1-.3-.675,1.064,1.064,0,0,1,.45-.918A1.712,1.712,0,0,1,100.962-14.436Zm18.756,8.964a6.973,6.973,0,0,1-.4,2.475,4.985,4.985,0,0,1-1.125,1.791A4.745,4.745,0,0,1,116.5-.117a5.938,5.938,0,0,1-2.124.369,6.011,6.011,0,0,1-2.133-.369,4.642,4.642,0,0,1-1.692-1.089A5.05,5.05,0,0,1,109.431-3a6.973,6.973,0,0,1-.4-2.475,6.763,6.763,0,0,1,.414-2.466,5.2,5.2,0,0,1,1.134-1.791,4.671,4.671,0,0,1,1.7-1.1,5.907,5.907,0,0,1,2.1-.369,5.886,5.886,0,0,1,2.106.369,4.687,4.687,0,0,1,1.692,1.1A5.2,5.2,0,0,1,119.3-7.938,6.764,6.764,0,0,1,119.718-5.472Zm-1.962,0a4.541,4.541,0,0,0-.918-3.069,3.106,3.106,0,0,0-2.466-1.053,3.081,3.081,0,0,0-2.439,1.062,4.517,4.517,0,0,0-.927,3.06,4.577,4.577,0,0,0,.918,3.078,3.074,3.074,0,0,0,2.448,1.062,3.094,3.094,0,0,0,2.466-1.062A4.577,4.577,0,0,0,117.756-5.472Zm16.7-.072a4.914,4.914,0,0,0-.306-1.827,3.3,3.3,0,0,0-.846-1.251,3.456,3.456,0,0,0-1.26-.72,4.98,4.98,0,0,0-1.548-.234,8.283,8.283,0,0,0-1.584.126v7.938a4.426,4.426,0,0,0,.8.117q.441.027.891.027a3.739,3.739,0,0,0,2.862-1.053A4.4,4.4,0,0,0,134.46-5.544Zm1.98-.018a7.151,7.151,0,0,1-.414,2.547,4.763,4.763,0,0,1-1.179,1.809A4.825,4.825,0,0,1,133-.135a7.715,7.715,0,0,1-2.394.351q-.576,0-1.35-.054a6.01,6.01,0,0,1-1.44-.27,1,1,0,0,1-.828-.972V-10.1a.645.645,0,0,1,.171-.477,1.1,1.1,0,0,1,.477-.261,6.359,6.359,0,0,1,1.368-.261q.738-.063,1.44-.063a8.234,8.234,0,0,1,2.439.342,5.081,5.081,0,0,1,1.9,1.044,4.675,4.675,0,0,1,1.224,1.755A6.441,6.441,0,0,1,136.44-5.562Zm13.1.09a6.973,6.973,0,0,1-.4,2.475,4.985,4.985,0,0,1-1.125,1.791,4.745,4.745,0,0,1-1.692,1.089A5.938,5.938,0,0,1,144.2.252a6.011,6.011,0,0,1-2.133-.369,4.642,4.642,0,0,1-1.692-1.089A5.05,5.05,0,0,1,139.257-3a6.973,6.973,0,0,1-.4-2.475,6.763,6.763,0,0,1,.414-2.466A5.2,5.2,0,0,1,140.4-9.729a4.671,4.671,0,0,1,1.7-1.1,5.907,5.907,0,0,1,2.1-.369,5.886,5.886,0,0,1,2.106.369A4.687,4.687,0,0,1,148-9.729a5.2,5.2,0,0,1,1.134,1.791A6.763,6.763,0,0,1,149.544-5.472Zm-1.962,0a4.541,4.541,0,0,0-.918-3.069A3.106,3.106,0,0,0,144.2-9.594a3.081,3.081,0,0,0-2.439,1.062,4.517,4.517,0,0,0-.927,3.06,4.577,4.577,0,0,0,.918,3.078A3.074,3.074,0,0,0,144.2-1.332a3.094,3.094,0,0,0,2.466-1.062A4.577,4.577,0,0,0,147.582-5.472Zm16.7-.072a4.914,4.914,0,0,0-.306-1.827,3.3,3.3,0,0,0-.846-1.251,3.456,3.456,0,0,0-1.26-.72,4.98,4.98,0,0,0-1.548-.234,8.283,8.283,0,0,0-1.584.126v7.938a4.426,4.426,0,0,0,.8.117q.441.027.891.027A3.739,3.739,0,0,0,163.3-2.421,4.4,4.4,0,0,0,164.286-5.544Zm1.98-.018a7.152,7.152,0,0,1-.414,2.547,4.763,4.763,0,0,1-1.179,1.809,4.826,4.826,0,0,1-1.845,1.071,7.715,7.715,0,0,1-2.394.351q-.576,0-1.35-.054a6.01,6.01,0,0,1-1.44-.27,1,1,0,0,1-.828-.972V-10.1a.645.645,0,0,1,.171-.477,1.1,1.1,0,0,1,.477-.261,6.359,6.359,0,0,1,1.368-.261q.738-.063,1.44-.063a8.234,8.234,0,0,1,2.439.342,5.081,5.081,0,0,1,1.9,1.044,4.675,4.675,0,0,1,1.224,1.755A6.442,6.442,0,0,1,166.266-5.562Zm4.95,5.526a1.837,1.837,0,0,1-.369.1,2.814,2.814,0,0,1-.513.045,1.233,1.233,0,0,1-.8-.207.867.867,0,0,1-.243-.693V-10.926q.144-.036.387-.081a2.815,2.815,0,0,1,.513-.045,1.245,1.245,0,0,1,.774.2.846.846,0,0,1,.252.7Zm9.738-2.7h-4.392L175.68.018a1.623,1.623,0,0,1-.342.108,2.236,2.236,0,0,1-.432.036,1.275,1.275,0,0,1-.738-.2.673.673,0,0,1-.288-.594,1.4,1.4,0,0,1,.054-.387q.054-.189.144-.423.234-.756.657-1.953t.9-2.529q.477-1.332.963-2.619t.846-2.2a2.248,2.248,0,0,1,.558-.207,3.042,3.042,0,0,1,.774-.1,2.839,2.839,0,0,1,.936.144.87.87,0,0,1,.558.5q.4,1.026.864,2.331t.936,2.691q.468,1.386.9,2.718t.774,2.412a1.243,1.243,0,0,1-.423.3,1.509,1.509,0,0,1-.621.117,1.057,1.057,0,0,1-.7-.189,1.41,1.41,0,0,1-.36-.639Zm-2.2-6.642q-.18.486-.4,1.1t-.45,1.287q-.234.675-.468,1.368t-.45,1.341h3.546q-.234-.72-.477-1.449t-.468-1.395l-.423-1.251q-.2-.585-.324-1Z" transform="translate(-0.504 14.508)"/></svg>