<svg xmlns="http://www.w3.org/2000/svg" width="27.172" height="18.114" viewBox="0 0 27.172 18.114"><defs><style>.a{fill:#fff;}</style></defs><path class="a" d="M27.039,20.476l-6.594-15.1A1.436,1.436,0,0,0,19.137,4.5h-4.6l.116,1.093a.378.378,0,0,1-.375.417H12.9a.378.378,0,0,1-.375-.417L12.638,4.5h-4.6a1.436,1.436,0,0,0-1.308.881L.132,20.476a1.506,1.506,0,0,0,1.309,2.138h9.285l.486-4.608a.755.755,0,0,1,.751-.676h3.245a.755.755,0,0,1,.751.676l.486,4.608h9.285A1.506,1.506,0,0,0,27.039,20.476ZM12.284,7.857a.377.377,0,0,1,.375-.338h1.853a.378.378,0,0,1,.375.338l.217,2.056a.566.566,0,0,1-.563.626H12.63a.566.566,0,0,1-.563-.626l.217-2.056Zm2.606,7.965H12.281a.755.755,0,0,1-.751-.834l.239-2.264a.755.755,0,0,1,.751-.676h2.13a.755.755,0,0,1,.751.676l.239,2.264a.755.755,0,0,1-.751.834Z" transform="translate(0 -4.5)"/></svg>