<svg width="24" height="24" viewBox="0 0 24 24" fill="none" xmlns="http://www.w3.org/2000/svg">
<path d="M12.75 15.75H15.75V20.25L20.25 15.75H21.744C22.1434 15.75 22.5265 15.5913 22.8089 15.3089C23.0913 15.0265 23.25 14.6434 23.25 14.244V2.25C23.25 1.85218 23.092 1.47064 22.8107 1.18934C22.5294 0.908035 22.1478 0.75 21.75 0.75H9.75C9.35218 0.75 8.97064 0.908035 8.68934 1.18934C8.40804 1.47064 8.25 1.85218 8.25 2.25V6.75" stroke="#009A93" stroke-width="1.5" stroke-linecap="round" stroke-linejoin="round"/>
<path d="M19.875 7.875C19.8008 7.875 19.7283 7.89699 19.6667 7.9382C19.605 7.9794 19.5569 8.03797 19.5285 8.10649C19.5002 8.17502 19.4927 8.25042 19.5072 8.32316C19.5217 8.3959 19.5574 8.46272 19.6098 8.51517C19.6623 8.56761 19.7291 8.60332 19.8018 8.61779C19.8746 8.63226 19.95 8.62484 20.0185 8.59645C20.087 8.56807 20.1456 8.52001 20.1868 8.45834C20.228 8.39667 20.25 8.32417 20.25 8.25C20.25 8.15054 20.2105 8.05516 20.1402 7.98484C20.0698 7.91451 19.9745 7.875 19.875 7.875Z" stroke="#009A93" stroke-width="1.5" stroke-linecap="round" stroke-linejoin="round"/>
<path d="M12.375 7.875C12.3008 7.875 12.2283 7.89699 12.1667 7.9382C12.105 7.9794 12.0569 8.03797 12.0285 8.10649C12.0002 8.17502 11.9927 8.25042 12.0072 8.32316C12.0217 8.3959 12.0574 8.46272 12.1098 8.51517C12.1623 8.56761 12.2291 8.60332 12.3018 8.61779C12.3746 8.63226 12.45 8.62484 12.5185 8.59645C12.587 8.56807 12.6456 8.52001 12.6868 8.45834C12.728 8.39667 12.75 8.32417 12.75 8.25C12.75 8.15054 12.7105 8.05516 12.6402 7.98484C12.5698 7.91451 12.4745 7.875 12.375 7.875Z" stroke="#009A93" stroke-width="1.5" stroke-linecap="round" stroke-linejoin="round"/>
<path d="M16.125 7.875C16.0508 7.875 15.9783 7.89699 15.9167 7.9382C15.855 7.9794 15.8069 8.03797 15.7785 8.10649C15.7502 8.17502 15.7427 8.25042 15.7572 8.32316C15.7717 8.3959 15.8074 8.46272 15.8598 8.51517C15.9123 8.56761 15.9791 8.60332 16.0518 8.61779C16.1246 8.63226 16.2 8.62484 16.2685 8.59645C16.337 8.56807 16.3956 8.52001 16.4368 8.45834C16.478 8.39667 16.5 8.32417 16.5 8.25C16.5 8.15054 16.4605 8.05516 16.3902 7.98484C16.3198 7.91451 16.2245 7.875 16.125 7.875Z" stroke="#009A93" stroke-width="1.5" stroke-linecap="round" stroke-linejoin="round"/>
<path d="M3.375 13.125C3.375 14.0201 3.73058 14.8785 4.36351 15.5115C4.99645 16.1444 5.85489 16.5 6.75 16.5C7.64511 16.5 8.50355 16.1444 9.13649 15.5115C9.76942 14.8785 10.125 14.0201 10.125 13.125C10.125 12.2299 9.76942 11.3715 9.13649 10.7385C8.50355 10.1056 7.64511 9.75 6.75 9.75C5.85489 9.75 4.99645 10.1056 4.36351 10.7385C3.73058 11.3715 3.375 12.2299 3.375 13.125V13.125Z" stroke="#009A93" stroke-width="1.5" stroke-linecap="round" stroke-linejoin="round"/>
<path d="M12.75 23.2501C12.5546 21.7973 11.8388 20.4648 10.7354 19.4998C9.63195 18.5348 8.21587 18.0029 6.75 18.0029C5.28413 18.0029 3.86805 18.5348 2.76462 19.4998C1.66118 20.4648 0.945351 21.7973 0.75 23.2501" stroke="#009A93" stroke-width="1.5" stroke-linecap="round" stroke-linejoin="round"/>
</svg>
