<svg xmlns="http://www.w3.org/2000/svg" xmlns:xlink="http://www.w3.org/1999/xlink" width="164.64" height="41.37" viewBox="0 0 164.64 41.37"><defs><style>.a{fill:#fff;}.b{filter:url(#a);}</style><filter id="a" x="0" y="0" width="164.64" height="41.37" filterUnits="userSpaceOnUse"><feOffset dy="3" input="SourceAlpha"/><feGaussianBlur stdDeviation="3" result="b"/><feFlood flood-opacity="0.161"/><feComposite operator="in" in2="b"/><feComposite in="SourceGraphic"/></filter></defs><g class="b" transform="matrix(1, 0, 0, 1, 0, 0)"><path class="a" d="M13.95-18.24a2.282,2.282,0,0,1,.18.405,1.657,1.657,0,0,1,.09.555,1.26,1.26,0,0,1-.24.81.832.832,0,0,1-.69.3H5.13v6.24H12.9a2.282,2.282,0,0,1,.18.405,1.657,1.657,0,0,1,.09.555,1.261,1.261,0,0,1-.24.81.832.832,0,0,1-.69.3H5.13V-.03a2.725,2.725,0,0,1-.465.12A3.44,3.44,0,0,1,4.02.15Q2.67.15,2.67-.93V-16.92a1.3,1.3,0,0,1,.36-.96,1.3,1.3,0,0,1,.96-.36ZM21.72-.06a3.749,3.749,0,0,1-.45.135,2.72,2.72,0,0,1-.66.075q-1.32,0-1.32-1.11V-18.18a3.609,3.609,0,0,1,.465-.135,2.908,2.908,0,0,1,.675-.075q1.29,0,1.29,1.11ZM44.55-9.12a10.244,10.244,0,0,1-1.575,5.94,7.927,7.927,0,0,1-4.1,3.12q1.11.6,1.965,1.035t1.59.765q.735.33,1.41.6t1.425.54a1.312,1.312,0,0,1,.06.345V3.48a1.237,1.237,0,0,1-.345.915,1.319,1.319,0,0,1-.975.345A5.731,5.731,0,0,1,41.5,3.915,39.071,39.071,0,0,1,37.98,1.74L36,.39h-.15A9.483,9.483,0,0,1,32.4-.225a7.768,7.768,0,0,1-2.76-1.8,8.209,8.209,0,0,1-1.83-2.97,11.861,11.861,0,0,1-.66-4.125,11.5,11.5,0,0,1,.675-4.11A8.556,8.556,0,0,1,29.67-16.2a7.672,7.672,0,0,1,2.76-1.815,9.4,9.4,0,0,1,3.42-.615,9.4,9.4,0,0,1,3.42.615A7.672,7.672,0,0,1,42.03-16.2a8.557,8.557,0,0,1,1.845,2.97A11.5,11.5,0,0,1,44.55-9.12Zm-2.49,0a8.085,8.085,0,0,0-1.695-5.52,5.725,5.725,0,0,0-4.515-1.92,6.339,6.339,0,0,0-2.55.495,5.335,5.335,0,0,0-1.95,1.44A6.547,6.547,0,0,0,30.1-12.3a10.586,10.586,0,0,0-.435,3.18A8.133,8.133,0,0,0,31.35-3.6a5.679,5.679,0,0,0,4.5,1.92A5.714,5.714,0,0,0,40.38-3.6,8.133,8.133,0,0,0,42.06-9.12ZM64.14-6.3a7.757,7.757,0,0,1-.465,2.76,5.574,5.574,0,0,1-1.38,2.1A6.338,6.338,0,0,1,60.06-.09a8.839,8.839,0,0,1-3.03.48A8.839,8.839,0,0,1,54-.09a6.185,6.185,0,0,1-2.22-1.35,5.661,5.661,0,0,1-1.365-2.1A7.757,7.757,0,0,1,49.95-6.3V-18.18a3.609,3.609,0,0,1,.465-.135,2.908,2.908,0,0,1,.675-.075q1.29,0,1.29,1.11V-6.51a5.631,5.631,0,0,0,.36,2.1,4.445,4.445,0,0,0,.975,1.515,3.851,3.851,0,0,0,1.47.915,5.535,5.535,0,0,0,1.845.3,5.535,5.535,0,0,0,1.845-.3,3.851,3.851,0,0,0,1.47-.915A4.445,4.445,0,0,0,61.32-4.41a5.631,5.631,0,0,0,.36-2.1V-18.18a3.609,3.609,0,0,1,.465-.135,2.908,2.908,0,0,1,.675-.075q1.32,0,1.32,1.11ZM71.85,0a1.3,1.3,0,0,1-.96-.36,1.3,1.3,0,0,1-.36-.96v-15.6a1.3,1.3,0,0,1,.36-.96,1.3,1.3,0,0,1,.96-.36h9.96a2.281,2.281,0,0,1,.18.405,1.656,1.656,0,0,1,.09.555,1.261,1.261,0,0,1-.24.81.832.832,0,0,1-.69.3H72.96v5.79h7.92a2.282,2.282,0,0,1,.18.4,1.656,1.656,0,0,1,.09.555,1.2,1.2,0,0,1-.24.795.852.852,0,0,1-.69.285H72.96v6.3h9a2.428,2.428,0,0,1,.18.39,1.624,1.624,0,0,1,.09.57,1.2,1.2,0,0,1-.24.8A.852.852,0,0,1,81.3,0Zm35.58-13.65a4.789,4.789,0,0,1-.615,2.385,4.013,4.013,0,0,1-2.055,1.7,4.83,4.83,0,0,1,2.55,1.785,4.713,4.713,0,0,1,.84,2.745,4.541,4.541,0,0,1-1.965,4.05,10,10,0,0,1-5.6,1.32q-1.26,0-2.445-.105A12.6,12.6,0,0,1,95.88-.18q-1.26-.36-1.26-1.38V-16.92a1.139,1.139,0,0,1,.99-1.14,11.319,11.319,0,0,1,2.16-.4q1.14-.1,2.49-.1a9.829,9.829,0,0,1,5.28,1.2A4.094,4.094,0,0,1,107.43-13.65ZM97.02-8.49v6.48a15.415,15.415,0,0,0,1.665.24q.945.09,1.9.09a7.068,7.068,0,0,0,3.78-.825A2.857,2.857,0,0,0,105.66-5.1a2.991,2.991,0,0,0-1.155-2.475,5.4,5.4,0,0,0-3.4-.915Zm0-1.98h4.08a4.278,4.278,0,0,0,2.865-.84,2.854,2.854,0,0,0,.975-2.28q0-2.97-4.68-2.97-1.05,0-1.815.075t-1.425.195ZM114.99,0a1.3,1.3,0,0,1-.96-.36,1.3,1.3,0,0,1-.36-.96v-15.6a1.3,1.3,0,0,1,.36-.96,1.3,1.3,0,0,1,.96-.36h9.96a2.281,2.281,0,0,1,.18.405,1.656,1.656,0,0,1,.09.555,1.261,1.261,0,0,1-.24.81.832.832,0,0,1-.69.3H116.1v5.79h7.92a2.282,2.282,0,0,1,.18.4,1.656,1.656,0,0,1,.09.555,1.2,1.2,0,0,1-.24.795.852.852,0,0,1-.69.285H116.1v6.3h9a2.428,2.428,0,0,1,.18.39,1.624,1.624,0,0,1,.09.57,1.2,1.2,0,0,1-.24.8.852.852,0,0,1-.69.285Zm26.19-4.74a2.208,2.208,0,0,1-.555.27,2.317,2.317,0,0,1-.765.12,2.287,2.287,0,0,1-.855-.15.924.924,0,0,1-.525-.48q-1.62-3.36-2.79-6.15t-1.89-4.62h-.12q-.09,2.25-.2,4.185t-.225,3.78q-.12,1.845-.24,3.735T132.78,0a4.349,4.349,0,0,1-.465.12,2.984,2.984,0,0,1-.615.06,1.292,1.292,0,0,1-.93-.27,1.056,1.056,0,0,1-.27-.78q0-.3.045-1.29t.135-2.4q.09-1.41.195-3.12t.24-3.48q.135-1.77.27-3.48t.255-3.12a2.416,2.416,0,0,1,.69-.39,2.728,2.728,0,0,1,1.02-.18,1.951,1.951,0,0,1,1.92,1.11q.57,1.17,1.155,2.475t1.17,2.655q.585,1.35,1.14,2.67T139.8-6.9h.12q.66-1.59,1.32-3.135t1.29-2.985q.63-1.44,1.2-2.7t1.02-2.31a2.235,2.235,0,0,1,.69-.225,4.456,4.456,0,0,1,.78-.075q1.41,0,1.62.96.12.54.27,1.785t.3,2.865q.15,1.62.285,3.48t.255,3.585q.12,1.725.21,3.18t.15,2.3a2.218,2.218,0,0,1-1.26.36,1.422,1.422,0,0,1-.795-.225,1.044,1.044,0,0,1-.4-.825q-.15-2.19-.27-4.35t-.225-4.11q-.105-1.95-.2-3.585t-.15-2.775h-.12q-.33.84-.765,1.89t-1.02,2.37q-.585,1.32-1.305,2.985T141.18-4.74Z" transform="translate(6.33 24.63)"/></g></svg>