<svg xmlns="http://www.w3.org/2000/svg" xmlns:xlink="http://www.w3.org/1999/xlink" width="106.037" height="62.759" viewBox="0 0 106.037 62.759"><defs><style>.a,.j,.k{fill:#fff;}.a{opacity:0.25;}.b{fill:url(#a);}.c{fill:#be6f72;}.d{fill:#3f3d56;}.e{fill:#65617d;}.f,.h,.j{opacity:0.1;}.g{fill:#e3e8f4;}.i{fill:#efb30f;}</style><linearGradient id="a" x1="0.5" y1="1" x2="0.5" gradientUnits="objectBoundingBox"><stop offset="0" stop-color="gray" stop-opacity="0.251"/><stop offset="0.54" stop-color="gray" stop-opacity="0.122"/><stop offset="1" stop-color="gray" stop-opacity="0.102"/></linearGradient></defs><g transform="translate(-33.283 -166.172)"><path class="a" d="M134.017,195.652a17.583,17.583,0,0,0-7.044-14.217q.091-.9.093-1.81c0-9.561-7.347-17.309-16.406-17.309a15.668,15.668,0,0,0-7.963,2.174,42.5,42.5,0,0,0-23.946-7.05c-14.9,0-27.723,7.035-33.41,17.124-.316-.019-.634-.03-.955-.03-9.059,0-16.406,7.751-16.406,17.312a17.925,17.925,0,0,0,2.7,9.516h0c0,8.6,7.8,15.576,17.425,15.576h69.807c7.558,0,13.684-5.476,13.684-12.23h0a17.943,17.943,0,0,0,2.421-9.055Z" transform="translate(5.303 11.982)"/><path class="b" d="M731.345,247.226a1.014,1.014,0,0,0-.452-.206c-.173-.041-.35-.067-.527-.1l-2.282-.342a2.584,2.584,0,0,0-.7-.039.876.876,0,0,0-.608.328.505.505,0,0,0-.106.309.838.838,0,0,0,.1.32,1.086,1.086,0,0,1,.057.142q.033.164.082.323a.272.272,0,0,0,.039.064.1.1,0,0,1,0,.016c-.025.133.056.272.019.4-.032.11-.134.176-.2.268a.417.417,0,0,0-.009.445c.07.112.2.188.232.316.047.169-.081.332-.195.462a7.1,7.1,0,0,0-.58.761.479.479,0,0,0-.093.227c-.01.168.145.315.118.482-.021.131-.145.211-.251.289a1.633,1.633,0,0,0-.742,1.195,4.269,4.269,0,0,0-.9-2.122,1.529,1.529,0,0,1-.333-.543c-.02-.084-.024-.174-.052-.255-.093-.256-.387-.366-.516-.6-.093-.166-.093-.379-.208-.525s-.3-.178-.395-.319a2.086,2.086,0,0,1-.126-.3.643.643,0,0,0-.172-.214.481.481,0,0,0-.043-.032.156.156,0,0,0,.049-.114c0-.113-.107-.187-.2-.243-.121-.071-.238-.149-.353-.229a.832.832,0,0,0,.316-.269.914.914,0,0,0,.121-.579.747.747,0,0,0-.166-.443c-.058-.065-.132-.111-.193-.172a1.434,1.434,0,0,1-.278-.619,1.263,1.263,0,0,0-.477-.746c-.122-.074-.265-.109-.385-.187a.353.353,0,0,1-.178-.367.9.9,0,0,1,.172-.245.5.5,0,0,0-.118-.675c-.069-.045-.153-.085-.167-.168a.3.3,0,0,1-.215-.237.949.949,0,0,1,0-.343q.036-.269.071-.536a.323.323,0,0,0,.258,0,2.355,2.355,0,0,0,.278.378,3.817,3.817,0,0,1,.649,1.172.71.71,0,0,0,.244.409c.047.028.1.042.147.072a.558.558,0,0,1,.145.154c.111.153.223.306.333.459l.006.023a.137.137,0,0,0,.015.039.122.122,0,0,0,.08.042,1.3,1.3,0,0,0,1.02-.037c.267-.174.384-.517.61-.746.16-.163.387-.289.433-.519a1.6,1.6,0,0,1-.159-.061c.046-.048.093-.1.156-.168a2.029,2.029,0,0,0,.247-.306,2,2,0,0,0,.185-.432q.268-.795.538-1.59c.085-.251.171-.5.278-.747.111-.264.243-.518.364-.777a10.594,10.594,0,0,0,.721-2.112.8.8,0,0,0,.029-.308.814.814,0,0,0-.263-.417,1.95,1.95,0,0,0-.395-.34.628.628,0,0,0-.495-.083.739.739,0,0,0-.441.579,6.3,6.3,0,0,0-.057.771c-.033.371-.156.73-.185,1.1-.016.215,0,.433-.025.648a2.428,2.428,0,0,1-.278.8,5.137,5.137,0,0,1-1.2,1.537c-.057.049-.115.1-.171.15a.957.957,0,0,1,.012-.125.707.707,0,0,0-.118.043.384.384,0,0,0-.014-.145c-.074-.231-.4-.289-.464-.524a1.127,1.127,0,0,1-.016-.176,4.577,4.577,0,0,0-.2-.579,2.569,2.569,0,0,0-.093-.556,1.543,1.543,0,0,0-.247-.289,1.15,1.15,0,0,1-.234-.46c-.012-.047-.023-.1-.036-.144a.682.682,0,0,0-.033-.317c-.084-.218-.3-.358-.381-.579-.061-.172-.034-.386-.15-.519a.539.539,0,0,0-.22-.138,4.729,4.729,0,0,0-1.323-.325,1.1,1.1,0,0,1-.716-.224c-.212-.216-.222-.6-.471-.772a.548.548,0,0,0-.7.169.92.92,0,0,0-.07.1,1.071,1.071,0,0,1-.019-.4c0-.033.006-.067.009-.1a1.868,1.868,0,0,0,1-.826v.006l.011.03c.027.07.069.138.133.146h0a.181.181,0,0,0,.115-.043.97.97,0,0,0,.154-.139q.035-.041.067-.084a1.107,1.107,0,0,0,.109-.193,1.182,1.182,0,0,0,.093-.323c.017-.112.019-.227.037-.338a2.148,2.148,0,0,1,.068-.256c.009-.028.019-.056.027-.084l.03-.1a2.311,2.311,0,0,0,.093-.611v-.1a1.036,1.036,0,0,0-.311-.718c-.16-.136-.371-.193-.488-.377a1.853,1.853,0,0,1-.137-.427.941.941,0,0,0-.729-.682.788.788,0,0,0-.577.165h0l-.013.011h0a.951.951,0,0,0-.23.266.757.757,0,0,1-.326-.193c-.093-.09-.164-.2-.258-.289a.644.644,0,0,0-.66-.145.811.811,0,0,0-.472.562,2.022,2.022,0,0,1-.148.593c-.082.129-.218.193-.312.311a.6.6,0,0,0-.117.257h0a.724.724,0,0,0-.016.161h0a.305.305,0,0,0,.006.071v.012a.53.53,0,0,0,.016.078h0a.683.683,0,0,0,.138.264.612.612,0,0,0,.223.168.877.877,0,0,0,.108.036l.11.026.039.01a1.993,1.993,0,0,0-.052,1.7.812.812,0,0,1-.009.081,6.932,6.932,0,0,0,.048,1.137.631.631,0,0,1-.068.433.8.8,0,0,1-.134.124c.05-.068.1-.134.153-.2a.642.642,0,0,0-.523-.141,2.355,2.355,0,0,0-1.02.324,1.115,1.115,0,0,1-.658.26c-.14-.016-.278-.1-.414-.058a.834.834,0,0,0-.212.131.279.279,0,0,1-.174.056,3.8,3.8,0,0,0-.545-.464,4.392,4.392,0,0,1-.542-.6c-.3-.377-.6-.755-.894-1.136a2.218,2.218,0,0,1-.547-1.076,1.053,1.053,0,0,1-.006-.122,3.229,3.229,0,0,1,.07-.579.3.3,0,0,0,0-.14c-.028-.1-.134-.132-.226-.153h0c.012-.074.02-.15.025-.223a17.594,17.594,0,0,1,.164-2.484,1.718,1.718,0,0,1,.385-.855c.338-.356.9-.442,1.164-.863a1.015,1.015,0,0,0-.142-1.157,1.373,1.373,0,0,0-1.092-.42.547.547,0,0,0-.318.089.705.705,0,0,0-.193.3l-.4,1.006a6.218,6.218,0,0,0-.291.808c-.111.422-.136.868-.224,1.294a3.465,3.465,0,0,1-.314,1.039c-.124.339-.259.675-.371,1.021-.028.087-.125.344-.185.579a.34.34,0,0,0-.063.049,1.752,1.752,0,0,0-.132.2c-.084.116-.221.177-.314.289s-.112.317.017.373a.368.368,0,0,0,.081.018.3.3,0,0,1,.05.009c.139.04.194.223.173.373s-.093.289-.1.44a1.215,1.215,0,0,0,.27.738,6.355,6.355,0,0,0,.495.693c.131.152.278.289.41.436.5.536.9,1.163,1.35,1.746a3.807,3.807,0,0,0,.55.6,4.157,4.157,0,0,0,.416.3l.775.511a.837.837,0,0,0,.293.144.376.376,0,0,0,.1,0c0,.024.008.047.014.071a4.384,4.384,0,0,1,.208.74c.015.257-.007.521.01.781.017.24.068.482.081.718a4.791,4.791,0,0,1-.185,1.35,8.282,8.282,0,0,1-.556,1.909,1.152,1.152,0,0,0-.185.515.277.277,0,0,0,.006.068h0l-.139.082c-.041.024-.082.048-.119.073a1.013,1.013,0,0,0-.437.458c-.058.167-.032.358-.1.52l-.011.021c-.074.15-.222.262-.255.427h0c-.025.126.023.26,0,.386v0a1.443,1.443,0,0,0-.05.193.24.24,0,0,0,.006.064.37.37,0,0,0,.111.188.747.747,0,0,0,.108.09q.059.041.122.075l.024.014c.035.019.07.038.107.055l.024.011c.042.019.084.037.127.052l.03.01c.033.012.068.022.1.031l.023.008.021,0,.093.02.034.007c.041.007.083.013.125.017h.037c.031,0,.062,0,.093.006h.169a.988.988,0,0,0,.131-.013h.014c.039-.006.078-.013.117-.021l.03-.007c.036-.009.072-.017.109-.029l.019-.006c.044-.014.087-.028.13-.045a3.335,3.335,0,0,0,.428-.221c.093-.053.185-.107.278-.156a2.114,2.114,0,0,1,.211-.1,1.151,1.151,0,0,1,.556-.1,2.105,2.105,0,0,1,.278.059v.032q.113.694.223,1.389a2.691,2.691,0,0,1,.384-.24.912.912,0,0,0-.049.217.9.9,0,0,0,0,.173.389.389,0,0,1-.026.265c-.032.044-.093.069-.11.12a.422.422,0,0,0-.009.157.246.246,0,0,1-.221.233.374.374,0,0,1-.14.43.488.488,0,0,0-.107.073.34.34,0,0,0-.062.146,2.6,2.6,0,0,1-.726,1.241,2.383,2.383,0,0,0-.359.365,1.687,1.687,0,0,0-.162.333q-.371.943-.753,1.887a4.314,4.314,0,0,0-.323,1.089c-.111,1.04-1,1.921-.834,2.953a1.478,1.478,0,0,0,.289.7,1.7,1.7,0,0,0,.742.474,13.078,13.078,0,0,0,2.219.607l1.179.252a4.974,4.974,0,0,0,.7.116,4.428,4.428,0,0,1,.854.068,2.565,2.565,0,0,0,.513.142c.152.009.339-.025.429.1s.02.3.106.415c.137.182.472,0,.621.172a.819.819,0,0,1,.093.213.386.386,0,0,0,.093.122.847.847,0,0,1,.011.165,2.944,2.944,0,0,1-.134.658q-.167.587-.333,1.176a2.714,2.714,0,0,0-.093.424,1.052,1.052,0,0,0,0,.21.578.578,0,0,0,.333.5.589.589,0,0,0,.45-.058,1.984,1.984,0,0,0,.371-.26,2.588,2.588,0,0,0,.535-.573c.463-.721.313-1.7.639-2.495a12.1,12.1,0,0,0,.777-1.526.633.633,0,0,0,.011-.33.663.663,0,0,0-.44-.372h-.008a3.7,3.7,0,0,0-.463-.138c-.039-.009-.079-.015-.119-.022a.753.753,0,0,1-.2-.278.666.666,0,0,0-.044-.167.165.165,0,0,0-.133-.077c-.093-.01-.217.025-.318.017-.207-.015-.344-.227-.529-.324a1.042,1.042,0,0,0-.584-.059.52.52,0,0,1-.211-.014.8.8,0,0,1-.222-.159.9.9,0,0,0-.817-.171.861.861,0,0,1-.278.066c-.181-.011-.309-.178-.442-.306a5.224,5.224,0,0,0-1.328-.668.307.307,0,0,1-.16-.143c-.051-.131.064-.262.168-.352l.762-.659c.834-.721,1.877-1.264,2.264-2.322a1.368,1.368,0,0,1,.185-.4.521.521,0,0,1,.1-.1.754.754,0,0,1,.57-.116,1.888,1.888,0,0,1,.671.3q.5.313.969.675a8.647,8.647,0,0,1,.885.756c.487.482.892,1.054,1.345,1.574a4.34,4.34,0,0,0,1.6,1.254,1.991,1.991,0,0,0,1.931-.179,3.433,3.433,0,0,0,.982-2.135,3.513,3.513,0,0,0,.622-1.35c.107-.3.243-.579.358-.876.137-.349.245-.71.352-1.069a5.316,5.316,0,0,0,.247-1.116,9.163,9.163,0,0,1,.052-1.8,6.269,6.269,0,0,0,.619-.248,2.952,2.952,0,0,1,.981-.088h.021a.491.491,0,0,0,.326-.08.554.554,0,0,0,.134-.411A1.29,1.29,0,0,0,731.345,247.226Zm-13.43-16.451a.663.663,0,0,1-.234.017Z" transform="translate(-611.464 -50.198)"/><path class="c" d="M787.717,310.092a1.007,1.007,0,0,1-.386.213l-.657.245a2.365,2.365,0,0,1-1.106.219,3.554,3.554,0,0,1-1.249-.336c-.208-.264.52-.653.768-.876a1.066,1.066,0,0,0,.156-.143.6.6,0,0,0,.068-.431,6.928,6.928,0,0,1-.048-1.135,2.362,2.362,0,0,1,.037-.269c.093-.444.489-.282.8-.164a6.153,6.153,0,0,1,1.089.491.79.79,0,0,1,.269.237,1.251,1.251,0,0,1,.06.772.746.746,0,0,0,.108.567,1.435,1.435,0,0,1,.175.193A.372.372,0,0,1,787.717,310.092Z" transform="translate(-680.9 -123.414)"/><path class="c" d="M714.434,231.67c.093-.427.113-.868.224-1.291a6.2,6.2,0,0,1,.291-.805l.409-.992a.7.7,0,0,1,.193-.3.554.554,0,0,1,.318-.089,1.385,1.385,0,0,1,1.092.42,1,1,0,0,1,.142,1.151c-.26.421-.826.506-1.164.861a1.717,1.717,0,0,0-.385.853,17.489,17.489,0,0,0-.164,2.478.837.837,0,0,1-.278.685.784.784,0,0,1-.415.084l-.608.011c-.1,0-.472.067-.539-.014-.119-.14.152-.836.2-.991.109-.344.244-.68.371-1.018A3.488,3.488,0,0,0,714.434,231.67Z" transform="translate(-616.694 -51.942)"/><path class="d" d="M828.4,570.312a12.253,12.253,0,0,1-.777,1.523c-.325.8-.179,1.769-.639,2.488a2.582,2.582,0,0,1-.535.574,1.981,1.981,0,0,1-.371.259.589.589,0,0,1-.45.058.577.577,0,0,1-.333-.5,1.051,1.051,0,0,1,0-.209,2.676,2.676,0,0,1,.093-.423q.167-.585.333-1.173a2.939,2.939,0,0,0,.134-.656c.012-.243-.136-.559-.073-.786.029-.1.136-.193.185-.279a1.647,1.647,0,0,0,.159-.394,2.514,2.514,0,0,1,.287-.783,1.8,1.8,0,0,1,.362-.352.949.949,0,0,1,.345-.2.813.813,0,0,1,.371.018,3.553,3.553,0,0,1,.463.137h.008a.655.655,0,0,1,.44.371A.63.63,0,0,1,828.4,570.312Z" transform="translate(-718.109 -360.287)"/><path class="d" d="M916.781,439.548a.548.548,0,0,1-.134.41.491.491,0,0,1-.326.08h-.025a3,3,0,0,0-.981.088,3.619,3.619,0,0,1-.705.262,1.676,1.676,0,0,1-.967-.324,9.455,9.455,0,0,0-.878-.434c-.2-.084-.6-.138-.692-.362q-.049-.159-.081-.322a1.1,1.1,0,0,0-.057-.142.837.837,0,0,1-.1-.319.505.505,0,0,1,.106-.309.878.878,0,0,1,.607-.325,2.589,2.589,0,0,1,.7.039l2.282.341a5.166,5.166,0,0,1,.526.1,1.013,1.013,0,0,1,.452.206A1.253,1.253,0,0,1,916.781,439.548Z" transform="translate(-796.625 -241.379)"/><path class="e" d="M764.745,447.949a5.864,5.864,0,0,0-.128,2.008,5.288,5.288,0,0,1-.247,1.113c-.107.359-.215.719-.352,1.067-.115.289-.251.579-.358.874a3.566,3.566,0,0,1-.622,1.35,3.412,3.412,0,0,1-.982,2.129,1.986,1.986,0,0,1-1.931.179,4.339,4.339,0,0,1-1.6-1.254c-.453-.52-.858-1.086-1.345-1.57a8.5,8.5,0,0,0-.887-.755q-.471-.356-.968-.669a1.9,1.9,0,0,0-.671-.3.754.754,0,0,0-.57.116.527.527,0,0,0-.1.1,1.35,1.35,0,0,0-.185.4c-.389,1.055-1.434,1.6-2.268,2.316l-.762.657c-.1.09-.219.221-.168.351a.308.308,0,0,0,.159.143,5.22,5.22,0,0,1,1.328.666c.133.127.261.3.442.3a.858.858,0,0,0,.278-.065.907.907,0,0,1,.817.17.8.8,0,0,0,.223.159.519.519,0,0,0,.211.013,1.088,1.088,0,0,1,.584.059c.177.092.323.308.529.323.1.008.222-.027.318-.017a.166.166,0,0,1,.133.077.666.666,0,0,1,.044.166c.038.136.166.219.249.331a.944.944,0,0,1,.133.622,2.7,2.7,0,0,1-.812,1.776,1,1,0,0,1-.5.289.457.457,0,0,1-.495-.229.809.809,0,0,0-.093-.212c-.149-.171-.484.011-.621-.172-.085-.114-.024-.3-.106-.414s-.278-.1-.429-.1a2.635,2.635,0,0,1-.513-.142,4.431,4.431,0,0,0-.854-.068,4.966,4.966,0,0,1-.7-.116l-1.179-.251a13.541,13.541,0,0,1-2.219-.6,1.775,1.775,0,0,1-.741-.473,1.475,1.475,0,0,1-.289-.7c-.168-1.029.722-1.909.834-2.945a4.251,4.251,0,0,1,.323-1.086q.377-.941.753-1.883a1.7,1.7,0,0,1,.158-.334,2.365,2.365,0,0,1,.359-.364,2.588,2.588,0,0,0,.726-1.238.34.34,0,0,1,.062-.146.519.519,0,0,1,.107-.072.374.374,0,0,0,.14-.429.246.246,0,0,0,.221-.233.417.417,0,0,1,.009-.156c.022-.05.078-.075.11-.12a.387.387,0,0,0,.026-.264.886.886,0,0,1,0-.173.9.9,0,0,1,.248-.539c.222-.227.537-.168.842-.222a4.692,4.692,0,0,0,.89-.3,8.457,8.457,0,0,1,2.513-.6,5.3,5.3,0,0,1,2.538.42,1.429,1.429,0,0,1,.327.193.64.64,0,0,1,.172.213,2.019,2.019,0,0,0,.126.3c.1.141.286.186.395.319s.118.358.208.523c.129.235.427.344.516.6.028.081.031.17.052.254a1.461,1.461,0,0,0,.333.542,4.25,4.25,0,0,1,.9,2.122,1.62,1.62,0,0,1,.742-1.192c.107-.072.23-.152.251-.284.027-.166-.128-.313-.118-.482a.483.483,0,0,1,.093-.226,7.117,7.117,0,0,1,.58-.759c.114-.13.242-.289.195-.461-.036-.128-.162-.2-.232-.315a.415.415,0,0,1,.009-.444c.065-.092.168-.158.2-.267.036-.128-.044-.267-.019-.4a.491.491,0,0,1,.191-.257,1.587,1.587,0,0,1,.414-.284,1.522,1.522,0,0,1,.777-.023,1.568,1.568,0,0,1,1.165.537A.945.945,0,0,1,764.745,447.949Z" transform="translate(-646.595 -249.163)"/><path class="f" d="M916.753,439.548a.548.548,0,0,1-.134.41.491.491,0,0,1-.326.08h-.025c.038-.2.272-.315.313-.519a.472.472,0,0,0-.1-.35,1.664,1.664,0,0,0-.834-.546,5.321,5.321,0,0,0-2.786-.217,2.725,2.725,0,0,0-.732.234,2.372,2.372,0,0,0-.223.164.837.837,0,0,1-.1-.319.5.5,0,0,1,.106-.309.878.878,0,0,1,.607-.325,2.586,2.586,0,0,1,.7.039l2.282.341a5.142,5.142,0,0,1,.526.1,1.012,1.012,0,0,1,.452.206A1.244,1.244,0,0,1,916.753,439.548Z" transform="translate(-796.597 -241.379)"/><path class="f" d="M828.4,571.918a12.266,12.266,0,0,1-.777,1.523c-.325.8-.179,1.769-.639,2.488a2.587,2.587,0,0,1-.535.574,1.978,1.978,0,0,1-.371.259.589.589,0,0,1-.45.058.577.577,0,0,1-.333-.5,1.052,1.052,0,0,1,0-.209l.006.015c.081.2.212.415.42.45a.555.555,0,0,0,.428-.157,2.762,2.762,0,0,0,.653-1,4.282,4.282,0,0,0,.313-.832c.037-.164.055-.332.093-.5.176-.8.776-1.447.908-2.254a.576.576,0,0,0,.007-.169.878.878,0,0,0-.08-.21,1.07,1.07,0,0,1-.07-.233.656.656,0,0,1,.44.371A.63.63,0,0,1,828.4,571.918Z" transform="translate(-718.109 -361.893)"/><path class="f" d="M786.558,511.307a1.4,1.4,0,0,1-.418.594,2,2,0,0,1-.9.405.862.862,0,0,1-.463-.006c-.206-.074-.354-.275-.565-.333a3.712,3.712,0,0,0-.463-.028,1.632,1.632,0,0,1-.706-.43c-.676-.529-1.563-.7-2.238-1.228a.213.213,0,0,1-.072-.078.241.241,0,0,1-.014-.109,2.293,2.293,0,0,1,.2-.927,3.24,3.24,0,0,1,.382-.566,16.945,16.945,0,0,1,1.938-2.2,2.918,2.918,0,0,1,1.02-.651,1.472,1.472,0,0,1,.893-.017.527.527,0,0,0-.1.1,1.35,1.35,0,0,0-.185.4c-.39,1.056-1.435,1.6-2.269,2.317l-.762.657c-.1.09-.219.221-.168.351a.307.307,0,0,0,.159.143,5.216,5.216,0,0,1,1.328.666c.133.127.261.3.442.3a.856.856,0,0,0,.278-.065.907.907,0,0,1,.817.17.79.79,0,0,0,.222.159.519.519,0,0,0,.211.014,1.087,1.087,0,0,1,.584.059c.177.092.323.308.529.323C786.341,511.332,786.461,511.3,786.558,511.307Z" transform="translate(-677.663 -302.665)"/><path class="d" d="M743.381,395.356a1.006,1.006,0,0,0-.436.455c-.059.167-.031.358-.1.52s-.232.275-.267.448c-.025.126.024.259,0,.386a1.705,1.705,0,0,0-.051.2.424.424,0,0,0,.225.34,1.819,1.819,0,0,0,1.684.193,7.492,7.492,0,0,0,.708-.377,1.357,1.357,0,0,1,.763-.193c.153.017.3.075.452.1a.462.462,0,0,0,.424-.131.561.561,0,0,0,.093-.229,3.55,3.55,0,0,0-.052-1.623c-.122-.532-.308-1.044-.438-1.574a7.459,7.459,0,0,0-.319-1.166,1.506,1.506,0,0,0-.78-.858.14.14,0,0,0-.093-.013.157.157,0,0,0-.06.046,2.992,2.992,0,0,0-.636,1.113c-.146.462-.185.952-.319,1.416a1.476,1.476,0,0,1-.278.6A3.171,3.171,0,0,1,743.381,395.356Z" transform="translate(-643.012 -199.803)"/><path class="f" d="M746.895,397a.574.574,0,0,1-.1.229.458.458,0,0,1-.424.13c-.152-.019-.3-.078-.451-.1a1.355,1.355,0,0,0-.763.193c-.237.123-.464.277-.709.376a1.8,1.8,0,0,1-1.124.067,1.778,1.778,0,0,1-.556-.255.415.415,0,0,1-.225-.34,1.72,1.72,0,0,1,.051-.2c.024-.126-.024-.259,0-.386.035-.174.2-.289.267-.449s.043-.352.1-.519a1.009,1.009,0,0,1,.437-.456,3.319,3.319,0,0,0,.526-.353.536.536,0,0,0,.049-.071,1.775,1.775,0,0,0,.221-.531c.136-.465.173-.954.318-1.417a3,3,0,0,1,.637-1.112.14.14,0,0,1,.059-.046.143.143,0,0,1,.093.012,1.516,1.516,0,0,1,.78.859,7.822,7.822,0,0,1,.319,1.165c.13.529.316,1.043.438,1.575A3.567,3.567,0,0,1,746.895,397Z" transform="translate(-643.03 -199.738)"/><path class="f" d="M797.118,308.94a1.831,1.831,0,0,1-2.258-1.061,2.36,2.36,0,0,1,.037-.269c.093-.444.489-.282.8-.164a6.154,6.154,0,0,1,1.089.491.79.79,0,0,1,.269.237A1.232,1.232,0,0,1,797.118,308.94Z" transform="translate(-690.496 -123.441)"/><ellipse class="c" cx="1.854" cy="1.929" rx="1.854" ry="1.929" transform="translate(104.208 181.635)"/><path class="f" d="M795.364,447.164c0,.16-.209.211-.363.2a11.292,11.292,0,0,0-1.651-.145c-.7.066-1.336.466-2.034.5a5.918,5.918,0,0,0-.807.024,10.157,10.157,0,0,1-1,.314c-.3.027-.6-.092-.906-.079a1.413,1.413,0,0,0-.605.179.9.9,0,0,1,.248-.539c.221-.227.537-.168.843-.222a4.689,4.689,0,0,0,.89-.3,8.456,8.456,0,0,1,2.513-.6,5.293,5.293,0,0,1,2.537.418,1.426,1.426,0,0,1,.327.193A.155.155,0,0,1,795.364,447.164Z" transform="translate(-684.272 -249.186)"/><path class="g" d="M774.424,331.947l-.751-.289-.317-.122a1.486,1.486,0,0,0-.4-.112,1.022,1.022,0,0,0-.9.544,3.024,3.024,0,0,0-.329,1.077q-.128.766-.217,1.537a10.458,10.458,0,0,0-.1,1.4,17.236,17.236,0,0,0,.531,3.534,12.863,12.863,0,0,1,.3,1.567c.022.218.032.437.055.656.024.246.063.489.1.733l.223,1.386a1.724,1.724,0,0,1,.936-.4c.3-.012.6.106.906.079a10.039,10.039,0,0,0,1-.313,5.781,5.781,0,0,1,.808-.024c.7-.037,1.338-.438,2.033-.5a10.744,10.744,0,0,1,1.652.144c.154.01.362-.041.362-.2,0-.112-.107-.186-.2-.242a9.92,9.92,0,0,1-1.256-.933,4.329,4.329,0,0,1-.987-1.016c-.605-.979-.4-2.3-.914-3.336-.42-.839,0-1.938,0-2.885a6.207,6.207,0,0,0-.107-1.407,6.142,6.142,0,0,0-.248-.752l-.361-.95a.157.157,0,0,0-.043-.072.138.138,0,0,0-.083-.026.847.847,0,0,0-.6.2c-.17.144-.278.35-.445.5A.661.661,0,0,1,774.424,331.947Z" transform="translate(-669.22 -144.861)"/><path class="d" d="M807.927,325.726a1.752,1.752,0,0,1,.293-.745.549.549,0,0,1,.7-.168c.248.168.258.556.471.772a1.111,1.111,0,0,0,.716.224,4.692,4.692,0,0,1,1.323.324.537.537,0,0,1,.22.137c.116.137.093.347.15.518.079.22.3.36.381.579a1.2,1.2,0,0,1-.078.765c-.14.448-.228.914-.364,1.365a3.075,3.075,0,0,1-.649,1.233c-.141.15-.35.289-.536.2l-.071.535a.946.946,0,0,0,0,.342.3.3,0,0,0,.215.237c.014.083.1.122.167.168a.484.484,0,0,1,.194.312.5.5,0,0,1-.077.363c-.058.082-.145.147-.172.244a.351.351,0,0,0,.178.366c.121.077.262.113.385.187a1.248,1.248,0,0,1,.477.744,1.4,1.4,0,0,0,.278.618c.061.061.134.107.193.171a.748.748,0,0,1,.166.443.907.907,0,0,1-.12.579,1.664,1.664,0,0,1-.834.482,7.011,7.011,0,0,0-1.331.907,1.4,1.4,0,0,1-.607.3,5.127,5.127,0,0,1-.9-.109,2.148,2.148,0,0,0-.536.073l-.556.125a3.872,3.872,0,0,0-.34-1.325,6.838,6.838,0,0,1-.237-2.507,20.384,20.384,0,0,1,.387-2.5,16.549,16.549,0,0,1,.278-1.746,11.839,11.839,0,0,0,.485-1.624C808.315,327.4,807.729,326.624,807.927,325.726Z" transform="translate(-701.511 -139.187)"/><path class="d" d="M848.69,352.127a1.09,1.09,0,0,1,.107.313,1.147,1.147,0,0,0,.234.459,1.563,1.563,0,0,1,.247.289,2.248,2.248,0,0,1,.093.556,4.585,4.585,0,0,1,.2.579,1.1,1.1,0,0,0,.016.176c.06.233.39.289.463.523.049.151-.035.316-.02.475a.433.433,0,0,1,.008.15.3.3,0,0,1-.106.141,2.243,2.243,0,0,0-.61,1.129,6.671,6.671,0,0,0-.14,1.3l-.362-.5a.564.564,0,0,0-.145-.154c-.046-.029-.1-.043-.147-.072a.7.7,0,0,1-.244-.407,3.8,3.8,0,0,0-.649-1.169,1.284,1.284,0,0,1-.351-.6A1.145,1.145,0,0,1,847.3,355a5.665,5.665,0,0,1,.488-1.839c.138-.262.317-.5.45-.766C848.328,352.222,848.453,351.763,848.69,352.127Z" transform="translate(-738.058 -163.806)"/><path class="d" d="M712.943,296.2a.454.454,0,0,1-.057.231.286.286,0,0,1-.293.1.833.833,0,0,1-.293-.143l-.775-.51a4.311,4.311,0,0,1-.416-.3,3.813,3.813,0,0,1-.55-.6c-.45-.579-.849-1.206-1.35-1.736-.136-.145-.278-.284-.41-.435a6.348,6.348,0,0,1-.495-.692,1.208,1.208,0,0,1-.27-.736c.015-.15.084-.289.1-.439s-.034-.332-.173-.372a.3.3,0,0,0-.05-.009.372.372,0,0,1-.081-.018c-.129-.056-.109-.263-.017-.372s.23-.17.314-.289a1.772,1.772,0,0,1,.132-.2.5.5,0,0,1,.216-.113,3.217,3.217,0,0,1,1.645-.065c.093.021.2.06.226.153a.293.293,0,0,1,0,.139,3.218,3.218,0,0,0-.07.579,1.05,1.05,0,0,0,.007.122,2.211,2.211,0,0,0,.547,1.074c.295.38.594.757.894,1.133a4.394,4.394,0,0,0,.542.6,3.123,3.123,0,0,1,.57.495,1.121,1.121,0,0,1,.093.592A13.648,13.648,0,0,1,712.943,296.2Z" transform="translate(-611.455 -107.269)"/><path class="c" d="M875.733,334.886a2,2,0,0,0,.247-.3,2.042,2.042,0,0,0,.185-.431l.538-1.586c.085-.251.171-.5.278-.746.111-.263.243-.517.364-.772a10.565,10.565,0,0,0,.72-2.1.622.622,0,0,0-.234-.723,1.948,1.948,0,0,0-.395-.339.627.627,0,0,0-.495-.083.739.739,0,0,0-.441.579,6.31,6.31,0,0,0-.057.772c-.033.37-.156.728-.185,1.1-.016.215,0,.432-.025.646a2.424,2.424,0,0,1-.278.8,5.142,5.142,0,0,1-1.2,1.533,1.965,1.965,0,0,0-.36.36,1.2,1.2,0,0,0-.173.449,1.073,1.073,0,0,0,.075.73,1.024,1.024,0,0,0,.718.446C875.39,335.3,875.477,335.163,875.733,334.886Z" transform="translate(-762.473 -141.934)"/><path class="d" d="M790.888,268.613a.858.858,0,0,1,.84-.474.941.941,0,0,1,.729.681,1.81,1.81,0,0,0,.137.426c.115.186.328.24.488.375a1.034,1.034,0,0,1,.311.717,2.251,2.251,0,0,1-.123.811,2.65,2.65,0,0,0-.093.339c-.019.112-.02.226-.037.338a1.107,1.107,0,0,1-.425.73.181.181,0,0,1-.115.043c-.072-.009-.117-.1-.144-.176-.147-.443-.112-.984-.384-1.337a1.41,1.41,0,0,0-.439-.34.553.553,0,0,0-.224-.088.576.576,0,0,0-.324.123,1.98,1.98,0,0,1-.641.3.764.764,0,0,1-.663-.149c-.128-.11-.221-.275-.363-.361a2.723,2.723,0,0,0-.43-.14.655.655,0,0,1-.366-.44.684.684,0,0,1,.109-.571c.093-.116.23-.181.312-.31a2.017,2.017,0,0,0,.148-.592.805.805,0,0,1,.472-.56.644.644,0,0,1,.66.144c.093.087.167.2.258.289a.722.722,0,0,0,.686.193" transform="translate(-684.815 -87.843)"/><path class="f" d="M828.561,419.043a.385.385,0,0,0-.1.409,8.371,8.371,0,0,0,1.078-.161c.252-.038.694-.019.864-.259.3-.425-.634-.331-.805-.315A1.718,1.718,0,0,0,828.561,419.043Z" transform="translate(-720.964 -224.079)"/><path class="d" d="M710.413,289.793a3.229,3.229,0,0,0-.07.579,1.563,1.563,0,0,1-.834-.134l-.767-.272a.212.212,0,0,0-.293.057,6.678,6.678,0,0,1-.463.535.365.365,0,0,1-.081-.018c-.129-.056-.109-.263-.017-.372s.23-.17.314-.289a1.766,1.766,0,0,1,.132-.2.5.5,0,0,1,.216-.113,3.217,3.217,0,0,1,1.645-.065c.093.021.2.06.226.153A.294.294,0,0,1,710.413,289.793Z" transform="translate(-611.518 -107.269)"/><path class="f" d="M710.413,289.793a3.229,3.229,0,0,0-.07.579,1.563,1.563,0,0,1-.834-.134l-.767-.272a.212.212,0,0,0-.293.057,6.678,6.678,0,0,1-.463.535.365.365,0,0,1-.081-.018c-.129-.056-.109-.263-.017-.372s.23-.17.314-.289a1.766,1.766,0,0,1,.132-.2.5.5,0,0,1,.216-.113,3.217,3.217,0,0,1,1.645-.065c.093.021.2.06.226.153A.294.294,0,0,1,710.413,289.793Z" transform="translate(-611.518 -107.269)"/><path class="f" d="M793.521,479.6a.465.465,0,0,1,.323.253l-1.073-.284-.556-.148c-.1-.026-.45-.056-.515-.136-.093-.118.236-.037.3-.028.18.028.36.057.538.091C792.872,479.413,793.2,479.516,793.521,479.6Z" transform="translate(-687.614 -278.77)"/><path class="f" d="M794.067,486.1a1.937,1.937,0,0,0-.473-.085c-.167-.041-.331-.1-.495-.149-.333-.113-.663-.241-1-.324-.063-.014-.278-.018-.268-.1s.215-.112.266-.116a2.543,2.543,0,0,1,.963.229A4.187,4.187,0,0,1,794.067,486.1Z" transform="translate(-687.744 -284.282)"/><path class="f" d="M795.576,468.424a6.925,6.925,0,0,0-1-.359.4.4,0,0,1-.255-.081.317.317,0,0,1-.083-.154,1.673,1.673,0,0,1,.72.188,2.236,2.236,0,0,1,.337.187C795.375,468.255,795.492,468.4,795.576,468.424Z" transform="translate(-689.934 -268.473)"/><path class="d" d="M867.374,384.46a1.69,1.69,0,0,0,1.136,1.864c-.045.229-.272.355-.433.518-.226.229-.343.571-.61.745a1.312,1.312,0,0,1-1.02.037.1.1,0,0,1-.094-.081,2.577,2.577,0,0,1-.07-1.312,4.35,4.35,0,0,1,.493-1C866.954,384.911,866.971,384.566,867.374,384.46Z" transform="translate(-755.247 -193.144)"/><path class="d" d="M746.915,327.09a2.342,2.342,0,0,0-1.02.323,1.114,1.114,0,0,1-.658.259c-.14-.016-.278-.1-.414-.058a.806.806,0,0,0-.212.131.233.233,0,0,1-.234.039l-.093,1.335a5.087,5.087,0,0,0,.047,1.52,4.393,4.393,0,0,1,.208.739c.015.257-.007.52.01.779.017.24.068.476.081.717a4.724,4.724,0,0,1-.185,1.343,8.233,8.233,0,0,1-.556,1.9,1.15,1.15,0,0,0-.185.514.273.273,0,0,0,.006.068c-.093.053-.179.1-.258.155a1.01,1.01,0,0,0-.437.456c-.058.167-.032.358-.1.519s-.232.276-.267.449c-.025.126.023.259,0,.386a1.71,1.71,0,0,0-.051.2.419.419,0,0,0,.225.34,1.78,1.78,0,0,0,.556.255l.553-2.286h0a18.826,18.826,0,0,0,1.254-3.035,6.7,6.7,0,0,1,.362-1,4.746,4.746,0,0,0,.278-.567,4.419,4.419,0,0,0,.133-.763,5.531,5.531,0,0,1,.218-.88,3.9,3.9,0,0,0,.236-.943,4.51,4.51,0,0,1,.041-1.386,1.85,1.85,0,0,1,.283-.443c.239-.3.457-.624.7-.929A.625.625,0,0,0,746.915,327.09Z" transform="translate(-643.075 -141.304)"/><g class="h" transform="translate(103.786 180.452)"><path d="M816.129,271.81l-.116.009-.013.01A.658.658,0,0,0,816.129,271.81Z" transform="translate(-813.463 -271.81)"/><path d="M793.417,286.724a2.688,2.688,0,0,1-.119.563,2.653,2.653,0,0,0-.093.339c-.019.112-.02.226-.037.338a1.107,1.107,0,0,1-.425.73.181.181,0,0,1-.115.043c-.072-.009-.117-.1-.144-.175-.147-.443-.112-.984-.384-1.337a1.409,1.409,0,0,0-.439-.34.552.552,0,0,0-.224-.088.577.577,0,0,0-.324.123,1.981,1.981,0,0,1-.641.3.764.764,0,0,1-.663-.148c-.128-.11-.222-.275-.363-.361a2.721,2.721,0,0,0-.43-.14.651.651,0,0,1-.362-.43.288.288,0,0,1-.007-.037.7.7,0,0,0,.007.326.651.651,0,0,0,.361.43,3.041,3.041,0,0,1,.43.14c.133.08.235.251.363.361a.764.764,0,0,0,.663.149,1.981,1.981,0,0,0,.641-.3.577.577,0,0,1,.324-.123.553.553,0,0,1,.224.088,1.411,1.411,0,0,1,.433.343c.272.353.236.894.384,1.337.027.08.071.167.144.175a.181.181,0,0,0,.121-.046,1.108,1.108,0,0,0,.426-.733c.017-.112.019-.226.037-.338a2.66,2.66,0,0,1,.093-.339,2.25,2.25,0,0,0,.123-.811C793.421,286.751,793.419,286.738,793.417,286.724Z" transform="translate(-788.631 -284.722)"/></g><path class="i" d="M651.356,372.81l-.063.88a18.879,18.879,0,0,1-1.849,6.294,17.46,17.46,0,0,1-9.2,8.659q-.6.246-1.241.459l-.478-1.562a17.218,17.218,0,0,0,3.45-1.57,15.644,15.644,0,0,0,6.04-6.67,18.412,18.412,0,0,0,1.585-4.851h-5.812V372.81Z" transform="translate(-548.647 -182.618)"/><path class="j" d="M643.9,388.662A17.457,17.457,0,0,0,653.1,380a18.842,18.842,0,0,0,1.849-6.294l.063-.88h.649l-.063.88A18.854,18.854,0,0,1,653.748,380a17.46,17.46,0,0,1-9.2,8.658q-.6.246-1.242.46l-.063-.205Q643.575,388.793,643.9,388.662Z" transform="translate(-552.93 -182.636)"/><path class="i" d="M414.355,387.54l-.478,1.562q-.644-.214-1.242-.46a17.457,17.457,0,0,1-9.2-8.658,18.846,18.846,0,0,1-1.849-6.294l-.063-.881h7.569v1.639h-5.812a18.424,18.424,0,0,0,1.59,4.851,15.634,15.634,0,0,0,6.039,6.669,17.173,17.173,0,0,0,3.451,1.571Z" transform="translate(-333.614 -182.618)"/><path class="i" d="M512.408,575.53v8.841H494.92V575.53l.556-.772c5.667-2.093,6.815-7.55,7.044-9.71q.051-.448.058-.9h2.162q.007.451.058.9c.233,2.159,1.381,7.619,7.044,9.71Z" transform="translate(-418.357 -355.505)"/><rect class="f" width="17.487" height="1.109" transform="translate(76.563 220.025)"/><path class="j" d="M496.4,574.758c5.667-2.093,6.815-7.55,7.044-9.71q.051-.448.058-.9h-.927q-.007.451-.058.9c-.233,2.159-1.381,7.619-7.044,9.71l-.556.772v8.841h.927V575.53Z" transform="translate(-418.357 -355.505)"/><path class="f" d="M466.26,372.81h1.568v1.639H466.4Q466.315,373.639,466.26,372.81Z" transform="translate(-392.354 -182.618)"/><path class="f" d="M506.221,510.831l-.478,1.562q-.644-.214-1.242-.46a17.328,17.328,0,0,1-1.73-2.673A17.174,17.174,0,0,0,506.221,510.831Z" transform="translate(-425.48 -305.909)"/><path class="f" d="M638.51,510.84a17.215,17.215,0,0,0,3.45-1.57,17.4,17.4,0,0,1-1.73,2.674q-.6.246-1.241.459Z" transform="translate(-548.638 -305.918)"/><path class="f" d="M696.9,372.81q-.055.829-.139,1.639H695.33V372.81Z" transform="translate(-600.191 -182.618)"/><path class="f" d="M579.239,565.049a5.763,5.763,0,0,1-2.279,0q.051-.448.058-.9h2.162Q579.188,564.6,579.239,565.049Z" transform="translate(-492.793 -355.505)"/><path class="i" d="M468.26,344.65c.04,12.157,5.045,21.988,11.215,21.988s11.174-9.831,11.215-21.988Z" transform="translate(-394.168 -157.174)"/><path class="j" d="M470.253,344.65H468.26c.04,12.157,5.045,21.988,11.215,21.988a5.83,5.83,0,0,0,1-.088C474.768,365.559,470.291,356.146,470.253,344.65Z" transform="translate(-394.168 -157.174)"/><rect class="k" width="11.895" height="3.183" transform="translate(79.359 223.409)"/><path class="j" d="M497.646,593.934h11.339V593.5H497.09v3.182h.556Z" transform="translate(-417.731 -370.091)"/><path class="j" d="M847.151,123.751s-7.8-.49-6.886,5.2a1.407,1.407,0,0,0,.693,1.462s.014-.421.8-.278a3.522,3.522,0,0,0,.848.042,1.731,1.731,0,0,0,1.036-.446h0s2.194-.943,3.047-4.673c0,0,.631-.814.606-1.023l-1.317.585a2.533,2.533,0,0,1,.093,1.81s-.043-1.774-.3-1.736c-.051.009-.684.342-.684.342a4.2,4.2,0,0,1,.19,2.973s.221-2.122-.432-2.849l-.927.563a4.409,4.409,0,0,1,.291,3.23s.158-2.226-.487-3.093l-.84.682a4.314,4.314,0,0,1,.332,2.957s-.068-2.591-.513-2.787a5.293,5.293,0,0,0-.847.951s.582,1.273.221,1.944c0,0-.222-1.726-.4-1.736a5.842,5.842,0,0,0-.808,1.929,4.28,4.28,0,0,1,.631-2.037,2.172,2.172,0,0,0-1.122.6s.114-.808,1.3-.879a5.288,5.288,0,0,1,.767-.921,4.645,4.645,0,0,0-1.9.228,2.075,2.075,0,0,1,2.114-.416l.83-.7a6.6,6.6,0,0,0-2.215.023,2.607,2.607,0,0,1,2.439-.183l.9-.561a7.973,7.973,0,0,0-2.116-.193,3.13,3.13,0,0,1,2.381.04l.649-.3s-.971-.2-1.256-.23-.3-.113-.3-.113a3.248,3.248,0,0,1,1.825.211A8.006,8.006,0,0,0,847.151,123.751Z" transform="translate(-731.625 42.432)"/><path class="j" d="M780.681,138.815s-3.522-.222-3.11,2.349a.64.64,0,0,0,.312.662s.007-.193.362-.126a1.562,1.562,0,0,0,.383.019.779.779,0,0,0,.468-.2h0a2.892,2.892,0,0,0,1.377-2.111s.285-.368.273-.463l-.6.264a1.151,1.151,0,0,1,.044.819s-.019-.8-.133-.783c-.023,0-.31.154-.31.154a1.9,1.9,0,0,1,.086,1.344s.1-.959-.2-1.287l-.419.255a1.987,1.987,0,0,1,.132,1.459,2.836,2.836,0,0,0-.22-1.4l-.379.311a1.952,1.952,0,0,1,.15,1.336s-.031-1.171-.233-1.259a2.384,2.384,0,0,0-.383.43s.263.579.1.878c0,0-.1-.78-.185-.783a2.669,2.669,0,0,0-.365.868,1.938,1.938,0,0,1,.285-.921.984.984,0,0,0-.507.273s.052-.365.589-.4a2.612,2.612,0,0,1,.347-.416,2.093,2.093,0,0,0-.857.1.944.944,0,0,1,.956-.193l.371-.318a3.075,3.075,0,0,0-1,.011,1.18,1.18,0,0,1,1.1-.083l.408-.254a3.529,3.529,0,0,0-.957-.086,1.411,1.411,0,0,1,1.076.017l.292-.136s-.439-.091-.568-.1-.135-.051-.135-.051a1.464,1.464,0,0,1,.825.1A3.665,3.665,0,0,0,780.681,138.815Z" transform="translate(-674.779 28.815)"/><ellipse class="k" cx="3.727" cy="0.656" rx="3.727" ry="0.656" transform="translate(114.478 227.62)"/><path class="k" d="M927.081,739.834a1.126,1.126,0,0,0,.355-.558.5.5,0,0,0-.248-.568c-.228-.091-.472.074-.656.24s-.4.356-.638.32a1.038,1.038,0,0,0,.3-.946.405.405,0,0,0-.083-.193c-.127-.141-.356-.081-.508.03a2.012,2.012,0,0,0-.619,1.647,3.223,3.223,0,0,1-.008-.675.572.572,0,0,0-.616-.691.749.749,0,0,0-.605.179.641.641,0,0,0,.023.771,2.376,2.376,0,0,0,.627.523,1.416,1.416,0,0,1,.448.445.418.418,0,0,1,.033.08h1.359A3.779,3.779,0,0,0,927.081,739.834Z" transform="translate(-807.335 -512.631)"/></g></svg>