<svg width="20" height="20" viewBox="0 0 20 20" fill="none" xmlns="http://www.w3.org/2000/svg">
<path d="M19.375 10.0039H6.25" stroke="#009A93" stroke-width="1.25" stroke-linecap="round" stroke-linejoin="round"/>
<path d="M9.375 13.1289L6.25 10.0039L9.375 6.87891" stroke="#009A93" stroke-width="1.25" stroke-linecap="round" stroke-linejoin="round"/>
<path d="M17.2441 13.8336C16.3841 15.6004 14.9544 17.0263 13.1853 17.8816C11.4161 18.7369 9.41063 18.9718 7.49175 18.5485C5.57286 18.1252 3.85233 17.0683 2.60727 15.548C1.36221 14.0278 0.665105 12.1327 0.628249 10.168C0.591394 8.20335 1.21693 6.28346 2.4041 4.71759C3.59126 3.15173 5.27095 2.03105 7.17261 1.53606C9.07426 1.04108 11.0872 1.20061 12.8871 1.98896C14.6871 2.7773 16.1693 4.14857 17.095 5.88189" stroke="#009A93" stroke-width="1.25" stroke-linecap="round" stroke-linejoin="round"/>
</svg>
