<svg xmlns="http://www.w3.org/2000/svg" xmlns:xlink="http://www.w3.org/1999/xlink" width="104.491" height="79.226" viewBox="0 0 104.491 79.226"><defs><style>.a{fill:#fff;}.b{filter:url(#a);}</style><filter id="a" x="0" y="0" width="104.491" height="79.226" filterUnits="userSpaceOnUse"><feOffset dy="3" input="SourceAlpha"/><feGaussianBlur stdDeviation="3" result="b"/><feFlood flood-opacity="0.161"/><feComposite operator="in" in2="b"/><feComposite in="SourceGraphic"/></filter></defs><g class="b" transform="matrix(1, 0, 0, 1, 0, 0)"><path class="a" d="M86.069,58.5,65.078,7.477A4.578,4.578,0,0,0,60.916,4.5H46.262l.368,3.693a1.25,1.25,0,0,1-1.2,1.409H41.056a1.25,1.25,0,0,1-1.2-1.409L40.229,4.5H25.575a4.578,4.578,0,0,0-4.164,2.977L.421,58.5c-1.389,3.379.827,7.228,4.165,7.228H34.143l1.548-15.574a2.461,2.461,0,0,1,2.389-2.283H48.411A2.461,2.461,0,0,1,50.8,50.152l1.548,15.574H81.905C85.243,65.726,87.459,61.877,86.069,58.5ZM39.1,15.846A1.23,1.23,0,0,1,40.3,14.7h5.9a1.232,1.232,0,0,1,1.2,1.142l.691,6.949a1.873,1.873,0,0,1-1.791,2.114H40.2a1.872,1.872,0,0,1-1.791-2.114l.689-6.949ZM47.4,42.766h-8.3A2.5,2.5,0,0,1,36.7,39.947l.761-7.653a2.461,2.461,0,0,1,2.389-2.283h6.78a2.461,2.461,0,0,1,2.389,2.283l.761,7.653A2.5,2.5,0,0,1,47.4,42.766Z" transform="translate(9 1.5)"/></g></svg>