<svg xmlns="http://www.w3.org/2000/svg" width="152.407" height="140.684" viewBox="0 0 152.407 140.684"><g transform="translate(-3.375 -4.5)"><path d="M49.537,4.5H27.995A24.626,24.626,0,0,0,3.375,29.12V50.662a5.129,5.129,0,0,0,10.258,0V28.753a14.058,14.058,0,0,1,4.286-9.6,13.989,13.989,0,0,1,9.709-4.4H49.537a5.129,5.129,0,1,0,0-10.258Z" transform="translate(0 0)"/><path d="M49.819,4.5H27.91a5.129,5.129,0,1,0,0,10.258H49.819a13.989,13.989,0,0,1,9.709,4.4,14.058,14.058,0,0,1,4.286,9.6V50.662a5.129,5.129,0,0,0,10.258,0V28.753A24.282,24.282,0,0,0,49.819,4.5Z" transform="translate(81.71 0)"/><path d="M49.537,62.689H27.628a13.989,13.989,0,0,1-9.709-4.4,14.058,14.058,0,0,1-4.286-9.6V26.785a5.129,5.129,0,1,0-10.258,0V48.694A24.282,24.282,0,0,0,27.628,72.947H49.537a5.129,5.129,0,1,0,0-10.258Z" transform="translate(0 72.237)"/><path d="M68.943,21.656a5.144,5.144,0,0,0-5.129,5.129V48.694a14.058,14.058,0,0,1-4.286,9.6,13.989,13.989,0,0,1-9.709,4.4H27.91a5.129,5.129,0,1,0,0,10.258H49.453a24.649,24.649,0,0,0,24.62-24.62V26.785A5.144,5.144,0,0,0,68.943,21.656Z" transform="translate(81.71 72.237)"/></g></svg>