<svg width="24" height="24" viewBox="0 0 24 24" fill="none" xmlns="http://www.w3.org/2000/svg">
<path d="M3.69001 1.50993C3.37547 1.36131 3.02841 1.29478 2.6812 1.31653C2.334 1.33828 1.99796 1.44761 1.70442 1.63431C1.41088 1.82102 1.16941 2.07903 1.00252 2.38427C0.835627 2.68951 0.748759 3.03204 0.750013 3.37993V20.6199C0.748759 20.9678 0.835627 21.3103 1.00252 21.6156C1.16941 21.9208 1.41088 22.1788 1.70442 22.3655C1.99796 22.5522 2.334 22.6616 2.6812 22.6833C3.02841 22.7051 3.37547 22.6385 3.69001 22.4899L22.06 13.8699C22.4171 13.7049 22.7194 13.4412 22.9314 13.1098C23.1433 12.7784 23.2559 12.3933 23.2559 11.9999C23.2559 11.6066 23.1433 11.2215 22.9314 10.8901C22.7194 10.5587 22.4171 10.2949 22.06 10.1299L3.69001 1.50993Z" stroke="#009A93" stroke-width="1.5" stroke-linecap="round" stroke-linejoin="round"/>
<path d="M4.32007 1.7998L18.9501 15.3298" stroke="#009A93" stroke-width="1.5" stroke-linecap="round" stroke-linejoin="round"/>
<path d="M4.55005 22.0896L18.88 8.63965" stroke="#009A93" stroke-width="1.5" stroke-linecap="round" stroke-linejoin="round"/>
</svg>
