<svg width="24" height="22" viewBox="0 0 24 22" fill="none" xmlns="http://www.w3.org/2000/svg">
<path d="M1.5 10.25C1.5 11.2446 1.89509 12.1984 2.59835 12.9017C3.30161 13.6049 4.25544 14 5.25 14C6.24456 14 7.19839 13.6049 7.90165 12.9017C8.60491 12.1984 9 11.2446 9 10.25C9 9.25544 8.60491 8.30161 7.90165 7.59835C7.19839 6.89509 6.24456 6.5 5.25 6.5C4.25544 6.5 3.30161 6.89509 2.59835 7.59835C1.89509 8.30161 1.5 9.25544 1.5 10.25V10.25Z" stroke="#009A93" stroke-width="1.5" stroke-linecap="round" stroke-linejoin="round"/>
<path d="M15 5C15 5.99456 15.3951 6.94839 16.0983 7.65165C16.8016 8.35491 17.7554 8.75 18.75 8.75C19.7446 8.75 20.6984 8.35491 21.4017 7.65165C22.1049 6.94839 22.5 5.99456 22.5 5C22.5 4.00544 22.1049 3.05161 21.4017 2.34835C20.6984 1.64509 19.7446 1.25 18.75 1.25C17.7554 1.25 16.8016 1.64509 16.0983 2.34835C15.3951 3.05161 15 4.00544 15 5Z" stroke="#009A93" stroke-width="1.5" stroke-linecap="round" stroke-linejoin="round"/>
<path d="M15 17C15 17.9946 15.3951 18.9484 16.0983 19.6517C16.8016 20.3549 17.7554 20.75 18.75 20.75C19.7446 20.75 20.6984 20.3549 21.4017 19.6517C22.1049 18.9484 22.5 17.9946 22.5 17C22.5 16.0054 22.1049 15.0516 21.4017 14.3483C20.6984 13.6451 19.7446 13.25 18.75 13.25C17.7554 13.25 16.8016 13.6451 16.0983 14.3483C15.3951 15.0516 15 16.0054 15 17Z" stroke="#009A93" stroke-width="1.5" stroke-linecap="round" stroke-linejoin="round"/>
<path d="M8.74597 8.89135L15.254 6.36035" stroke="#009A93" stroke-width="1.5" stroke-linecap="round" stroke-linejoin="round"/>
<path d="M8.60498 11.9277L15.395 15.3227" stroke="#009A93" stroke-width="1.5" stroke-linecap="round" stroke-linejoin="round"/>
</svg>
